<svg width="18" height="19" viewBox="0 0 18 19" fill="none" xmlns="http://www.w3.org/2000/svg">
<path d="M17.7359 17.6869L13.433 13.3849C14.6801 11.8876 15.302 9.96711 15.1693 8.02299C15.0366 6.07886 14.1594 4.26075 12.7203 2.94686C11.2813 1.63298 9.39103 0.924479 7.44288 0.968754C5.49473 1.01303 3.63865 1.80667 2.26074 3.18457C0.882839 4.56248 0.0892005 6.41856 0.0449256 8.36671C0.000650663 10.3149 0.709148 12.2051 2.02303 13.6442C3.33692 15.0832 5.15503 15.9604 7.09916 16.0931C9.04328 16.2259 10.9637 15.604 12.461 14.3568L16.7631 18.6597C16.8269 18.7236 16.9028 18.7742 16.9862 18.8088C17.0697 18.8434 17.1591 18.8612 17.2495 18.8612C17.3398 18.8612 17.4292 18.8434 17.5127 18.8088C17.5962 18.7742 17.672 18.7236 17.7359 18.6597C17.7997 18.5958 17.8504 18.52 17.885 18.4365C17.9196 18.3531 17.9373 18.2636 17.9373 18.1733C17.9373 18.083 17.9196 17.9935 17.885 17.9101C17.8504 17.8266 17.7997 17.7508 17.7359 17.6869ZM1.43696 8.54829C1.43696 7.32452 1.79985 6.12823 2.47975 5.1107C3.15964 4.09317 4.12599 3.3001 5.25661 2.83179C6.38723 2.36347 7.63133 2.24094 8.83158 2.47968C10.0318 2.71843 11.1343 3.30773 11.9997 4.17307C12.865 5.03841 13.4543 6.14091 13.6931 7.34117C13.9318 8.54143 13.8093 9.78553 13.341 10.9161C12.8727 12.0468 12.0796 13.0131 11.0621 13.693C10.0445 14.3729 8.84824 14.7358 7.62446 14.7358C5.98399 14.734 4.41124 14.0815 3.25125 12.9215C2.09126 11.7615 1.43878 10.1888 1.43696 8.54829Z" fill="#2D2D2D"/>
</svg>
